<?xml version="1.0" standalone="no"?>
<!DOCTYPE svg PUBLIC "-//W3C//DTD SVG 20010904//EN"
 "http://www.w3.org/TR/2001/REC-SVG-20010904/DTD/svg10.dtd">
<svg version="1.0" xmlns="http://www.w3.org/2000/svg"
 width="1000.000000pt" height="1000.000000pt" viewBox="0 0 1000.000000 1000.000000"
 preserveAspectRatio="xMidYMid meet">
<metadata>
Created by potrace 1.14, written by Peter Selinger 2001-2017
</metadata>
<g transform="translate(0.000000,1000.000000) scale(0.100000,-0.100000)"
fill="#000000" stroke="none">
<path d="M3470 8277 c-5 -4 -79 -13 -205 -23 -33 -3 -70 -7 -82 -9 -49 -10
-136 -25 -178 -32 -16 -2 -55 -9 -85 -15 -30 -6 -64 -12 -75 -13 -11 -1 -40
-5 -65 -9 -25 -4 -65 -9 -90 -11 -46 -4 -122 -13 -175 -20 -61 -8 -171 -19
-202 -19 -18 -1 -33 -3 -33 -6 0 -3 -21 -6 -48 -7 -71 -4 -72 -5 -72 -30 0
-29 22 -53 48 -53 63 0 80 -11 91 -59 7 -25 16 -58 21 -74 6 -20 5 -25 -3 -20
-9 5 -9 3 -1 -8 5 -8 9 -34 7 -59 -1 -25 -4 -110 -6 -190 -5 -172 -19 -238
-53 -246 -12 -3 -27 -3 -32 0 -11 6 -29 -13 -27 -29 0 -5 7 -27 15 -47 12 -34
17 -37 49 -36 20 0 45 5 56 11 15 8 270 14 270 7 0 -1 66 -3 147 -5 127 -2
153 -6 188 -24 28 -15 51 -19 75 -15 28 4 37 2 42 -13 4 -10 9 -20 12 -23 10
-9 51 -94 57 -120 11 -43 13 -200 2 -200 -5 0 -7 -3 -5 -7 9 -15 -26 -192 -50
-253 -8 -18 -7 -18 -17 -58 -7 -30 -11 -33 -39 -32 -60 4 -65 1 -62 -25 1 -14
-1 -25 -4 -26 -38 -7 -191 -2 -191 6 0 7 -3 6 -8 0 -8 -12 -131 -13 -149 -2
-7 5 -13 4 -13 0 0 -5 -9 -9 -20 -9 -11 0 -20 5 -20 11 0 7 -3 7 -8 0 -9 -14
-145 -14 -154 0 -5 7 -8 7 -8 0 0 -14 -252 -14 -262 0 -5 7 -8 6 -8 -1 0 -5
-19 -11 -42 -11 -161 -2 -187 -7 -185 -33 1 -10 5 -16 9 -14 4 3 8 -3 8 -13 0
-18 53 -60 71 -55 5 1 18 -12 28 -29 17 -28 19 -48 16 -168 -2 -75 -4 -136 -5
-136 0 0 -3 -65 -5 -145 -3 -129 -11 -249 -19 -304 -2 -16 -11 -19 -57 -19
-30 0 -60 3 -67 7 -7 4 -12 2 -13 -6 0 -7 -2 -21 -4 -30 -6 -31 27 -59 75 -64
25 -2 61 -7 80 -10 19 -3 96 -8 170 -10 74 -2 135 -4 135 -5 0 -2 105 -7 193
-9 82 -2 96 -5 127 -29 19 -14 46 -34 61 -45 l26 -18 -7 -147 c-7 -145 -9
-180 -19 -256 -3 -22 -8 -65 -11 -95 -12 -113 -22 -153 -35 -145 -4 2 -34 -4
-66 -15 -57 -18 -92 -23 -259 -37 -198 -17 -469 3 -513 37 -42 34 -44 31 -27
-60 4 -19 16 -45 28 -58 11 -12 22 -28 23 -35 1 -6 14 -58 28 -114 24 -93 25
-113 21 -248 -3 -84 -10 -153 -16 -161 -6 -7 -32 -27 -58 -43 -61 -39 -152
-49 -323 -35 -68 5 -78 4 -78 -10 0 -9 20 -28 44 -43 68 -43 118 -117 131
-193 2 -8 7 -28 12 -45 11 -34 11 -667 0 -705 -8 -29 -15 -70 -33 -187 -9 -63
-37 -85 -144 -116 -39 -12 -62 -25 -78 -46 -21 -29 -21 -30 -3 -36 29 -9 38
-62 14 -83 -49 -44 -114 -80 -154 -86 -24 -3 -64 -9 -89 -13 -25 -4 -140 -7
-256 -7 -208 1 -211 0 -210 -20 1 -17 12 -24 50 -33 75 -19 78 -28 26 -74 -47
-41 -121 -93 -181 -127 -58 -32 -196 -91 -226 -96 -15 -2 -28 -5 -28 -6 0 -1
-43 -3 -95 -5 -111 -2 -170 -18 -170 -45 0 -11 7 -19 18 -18 9 0 33 -2 52 -6
66 -12 85 -15 125 -21 22 -3 54 -8 70 -12 17 -3 46 -7 65 -9 19 -1 35 -3 35
-4 0 -2 49 -8 92 -11 18 -1 33 -5 33 -8 0 -4 15 -6 34 -5 19 1 53 -2 77 -6 24
-5 69 -11 99 -15 30 -3 66 -8 80 -10 45 -7 134 -18 165 -21 17 -1 30 -3 30 -4
0 -1 11 -3 25 -5 14 -1 72 -7 130 -14 200 -22 345 -34 402 -35 27 -1 48 -3 48
-6 0 -3 17 -6 38 -6 134 -5 172 -9 172 -17 0 -4 7 -4 16 1 9 5 34 5 58 1 22
-5 295 -6 606 -3 509 4 600 5 643 4 6 -1 199 2 427 5 228 3 587 7 798 9 211 2
386 6 389 9 3 3 10 4 16 1 21 -8 77 -12 77 -5 0 3 136 7 303 8 397 3 979 11
992 13 6 1 15 2 20 0 6 -1 44 -1 85 0 41 1 212 3 380 4 469 3 1331 15 1465 21
105 4 193 9 300 19 83 8 425 109 433 129 2 4 9 7 16 7 6 0 26 12 43 27 17 16
46 42 65 58 41 36 87 113 82 137 -2 10 -6 26 -8 35 -3 10 -5 20 -5 23 -1 3
-14 13 -30 23 -21 12 -60 19 -133 22 -161 8 -163 9 -133 72 9 19 18 41 20 47
1 6 8 25 14 43 11 28 16 31 59 32 122 3 184 11 264 34 48 14 89 22 92 19 3 -3
6 -1 6 5 0 6 14 13 30 17 36 7 135 52 153 70 6 6 23 20 37 29 13 9 37 40 52
68 21 41 25 56 17 77 -15 39 -36 49 -99 46 l-58 -2 77 40 c84 45 129 83 168
144 25 39 30 42 144 74 66 19 119 38 119 42 0 5 3 7 8 5 21 -13 202 116 202
144 0 26 -22 59 -39 59 -11 0 -22 3 -24 8 -3 4 -132 6 -287 6 -308 -2 -295 -5
-189 50 57 30 69 41 75 73 5 26 2 33 -28 51 -27 17 -50 21 -104 21 -38 -1
-244 2 -459 5 -372 6 -391 7 -407 26 -10 13 -29 20 -50 20 -31 0 -148 28 -273
64 -27 8 -84 29 -125 46 -69 29 -94 46 -85 60 2 3 6 28 9 55 4 28 9 59 11 70
2 11 4 37 4 58 1 23 5 36 11 32 14 -8 13 -3 -7 36 -10 19 -19 43 -20 54 -2 11
-5 34 -8 50 -3 17 -8 53 -11 80 -3 28 -21 83 -39 122 -31 66 -32 74 -17 82 19
10 103 28 177 37 125 15 146 21 164 45 9 12 24 29 34 37 9 9 17 20 17 25 0 9
16 30 42 54 9 9 15 20 12 25 -3 4 -2 14 2 20 5 7 9 19 10 28 2 24 13 86 23
132 14 64 11 272 -5 358 -8 41 -17 95 -20 120 -12 93 -103 299 -133 301 -9 0
-25 2 -36 4 -11 2 -45 5 -76 8 -31 2 -64 9 -73 14 -16 9 -16 11 -2 26 9 8 16
18 16 21 0 3 10 22 22 42 12 21 23 44 24 53 3 18 12 64 19 97 2 11 7 45 11 75
3 30 8 57 10 61 3 4 -3 42 -12 85 -9 43 -18 103 -19 133 -2 30 -6 84 -10 120
-4 36 -7 79 -7 95 -1 17 -12 45 -25 63 -13 17 -19 32 -14 32 12 0 91 104 91
120 0 5 4 10 8 10 4 0 9 19 9 43 1 23 2 42 3 42 1 0 3 7 5 15 9 46 27 137 29
150 2 8 7 38 11 65 5 28 8 53 8 56 -1 3 -4 57 -7 120 -2 63 -9 126 -15 142
-28 73 -55 120 -83 148 -27 25 -37 29 -62 23 -32 -7 -114 -6 -127 2 -4 2 -10
0 -14 -6 -4 -6 -11 -7 -18 -3 -6 4 -72 8 -147 9 -74 1 -148 3 -164 3 -28 1
-28 1 -23 54 3 28 8 70 12 92 21 129 31 253 24 284 -4 20 -10 47 -12 61 -9 44
-12 54 -27 81 -28 48 -69 107 -80 114 -5 3 -97 8 -203 11 -273 5 -515 16 -682
29 -27 2 -99 6 -160 10 -60 4 -126 8 -145 10 -19 2 -84 7 -144 10 -60 4 -120
9 -135 12 -14 3 -244 6 -511 9 -267 2 -546 6 -620 9 -74 4 -161 7 -192 8 -32
1 -58 4 -58 7 0 3 -71 6 -158 6 -86 1 -254 4 -372 8 -406 12 -656 17 -660 13z"/>
</g>
</svg>
